<svg aria-hidden="true" style="position: absolute; width: 0; height: 0; overflow: hidden;" version="1.1" xmlns="http://www.w3.org/2000/svg" xmlns:xlink="http://www.w3.org/1999/xlink">
<defs>
<symbol id="icon-envelope-o" viewBox="0 0 28 28">
<title>envelope-o</title>
<path d="M26 23.5v-12c-0.328 0.375-0.688 0.719-1.078 1.031-2.234 1.719-4.484 3.469-6.656 5.281-1.172 0.984-2.625 2.188-4.25 2.188h-0.031c-1.625 0-3.078-1.203-4.25-2.188-2.172-1.813-4.422-3.563-6.656-5.281-0.391-0.313-0.75-0.656-1.078-1.031v12c0 0.266 0.234 0.5 0.5 0.5h23c0.266 0 0.5-0.234 0.5-0.5zM26 7.078c0-0.391 0.094-1.078-0.5-1.078h-23c-0.266 0-0.5 0.234-0.5 0.5 0 1.781 0.891 3.328 2.297 4.438 2.094 1.641 4.188 3.297 6.266 4.953 0.828 0.672 2.328 2.109 3.422 2.109h0.031c1.094 0 2.594-1.437 3.422-2.109 2.078-1.656 4.172-3.313 6.266-4.953 1.016-0.797 2.297-2.531 2.297-3.859zM28 6.5v17c0 1.375-1.125 2.5-2.5 2.5h-23c-1.375 0-2.5-1.125-2.5-2.5v-17c0-1.375 1.125-2.5 2.5-2.5h23c1.375 0 2.5 1.125 2.5 2.5z"></path>
</symbol>
<symbol id="icon-twitter" viewBox="0 0 26 28">
<title>twitter</title>
<path d="M25.312 6.375c-0.688 1-1.547 1.891-2.531 2.609 0.016 0.219 0.016 0.438 0.016 0.656 0 6.672-5.078 14.359-14.359 14.359-2.859 0-5.516-0.828-7.75-2.266 0.406 0.047 0.797 0.063 1.219 0.063 2.359 0 4.531-0.797 6.266-2.156-2.219-0.047-4.078-1.5-4.719-3.5 0.313 0.047 0.625 0.078 0.953 0.078 0.453 0 0.906-0.063 1.328-0.172-2.312-0.469-4.047-2.5-4.047-4.953v-0.063c0.672 0.375 1.453 0.609 2.281 0.641-1.359-0.906-2.25-2.453-2.25-4.203 0-0.938 0.25-1.797 0.688-2.547 2.484 3.062 6.219 5.063 10.406 5.281-0.078-0.375-0.125-0.766-0.125-1.156 0-2.781 2.25-5.047 5.047-5.047 1.453 0 2.766 0.609 3.687 1.594 1.141-0.219 2.234-0.641 3.203-1.219-0.375 1.172-1.172 2.156-2.219 2.781 1.016-0.109 2-0.391 2.906-0.781z"></path>
</symbol>
<symbol id="icon-facebook" viewBox="0 0 16 28">
<title>facebook</title>
<path d="M14.984 0.187v4.125h-2.453c-1.922 0-2.281 0.922-2.281 2.25v2.953h4.578l-0.609 4.625h-3.969v11.859h-4.781v-11.859h-3.984v-4.625h3.984v-3.406c0-3.953 2.422-6.109 5.953-6.109 1.687 0 3.141 0.125 3.563 0.187z"></path>
</symbol>
<symbol id="icon-instagram" viewBox="0 0 24 28">
<title>instagram</title>
<path d="M16 14c0-2.203-1.797-4-4-4s-4 1.797-4 4 1.797 4 4 4 4-1.797 4-4zM18.156 14c0 3.406-2.75 6.156-6.156 6.156s-6.156-2.75-6.156-6.156 2.75-6.156 6.156-6.156 6.156 2.75 6.156 6.156zM19.844 7.594c0 0.797-0.641 1.437-1.437 1.437s-1.437-0.641-1.437-1.437 0.641-1.437 1.437-1.437 1.437 0.641 1.437 1.437zM12 4.156c-1.75 0-5.5-0.141-7.078 0.484-0.547 0.219-0.953 0.484-1.375 0.906s-0.688 0.828-0.906 1.375c-0.625 1.578-0.484 5.328-0.484 7.078s-0.141 5.5 0.484 7.078c0.219 0.547 0.484 0.953 0.906 1.375s0.828 0.688 1.375 0.906c1.578 0.625 5.328 0.484 7.078 0.484s5.5 0.141 7.078-0.484c0.547-0.219 0.953-0.484 1.375-0.906s0.688-0.828 0.906-1.375c0.625-1.578 0.484-5.328 0.484-7.078s0.141-5.5-0.484-7.078c-0.219-0.547-0.484-0.953-0.906-1.375s-0.828-0.688-1.375-0.906c-1.578-0.625-5.328-0.484-7.078-0.484zM24 14c0 1.656 0.016 3.297-0.078 4.953-0.094 1.922-0.531 3.625-1.937 5.031s-3.109 1.844-5.031 1.937c-1.656 0.094-3.297 0.078-4.953 0.078s-3.297 0.016-4.953-0.078c-1.922-0.094-3.625-0.531-5.031-1.937s-1.844-3.109-1.937-5.031c-0.094-1.656-0.078-3.297-0.078-4.953s-0.016-3.297 0.078-4.953c0.094-1.922 0.531-3.625 1.937-5.031s3.109-1.844 5.031-1.937c1.656-0.094 3.297-0.078 4.953-0.078s3.297-0.016 4.953 0.078c1.922 0.094 3.625 0.531 5.031 1.937s1.844 3.109 1.937 5.031c0.094 1.656 0.078 3.297 0.078 4.953z"></path>
</symbol>
<symbol id="icon-pinterest-p" viewBox="0 0 20 28">
<title>pinterest-p</title>
<path d="M0 9.328c0-5.766 5.281-9.328 10.625-9.328 4.906 0 9.375 3.375 9.375 8.547 0 4.859-2.484 10.25-8.016 10.25-1.313 0-2.969-0.656-3.609-1.875-1.188 4.703-1.094 5.406-3.719 9l-0.219 0.078-0.141-0.156c-0.094-0.984-0.234-1.953-0.234-2.938 0-3.187 1.469-7.797 2.188-10.891-0.391-0.797-0.5-1.766-0.5-2.641 0-1.578 1.094-3.578 2.875-3.578 1.313 0 2.016 1 2.016 2.234 0 2.031-1.375 3.938-1.375 5.906 0 1.344 1.109 2.281 2.406 2.281 3.594 0 4.703-5.187 4.703-7.953 0-3.703-2.625-5.719-6.172-5.719-4.125 0-7.313 2.969-7.313 7.156 0 2.016 1.234 3.047 1.234 3.531 0 0.406-0.297 1.844-0.812 1.844-0.078 0-0.187-0.031-0.266-0.047-2.234-0.672-3.047-3.656-3.047-5.703z"></path>
</symbol>
</defs>
</svg>
